{"asset":{"version":"2.0","generator":"babylon.js glTF exporter for maya 2018 v1.2.26"},"scene":0,"scenes":[{"nodes":[0,4],"extensions":{}}],"nodes":[{"children":[1,2,3],"translation":[0.0,0.0,0.0],"rotation":[0.0,0.0,0.0,1.0],"scale":[1.0,1.0,1.0],"name":"group17"},{"mesh":0,"translation":[-0.008863056,0.112656116,1.7560202E-06],"rotation":[0.0,0.0,0.0,1.0],"scale":[0.9817041,0.987303436,0.9790759],"name":"B"},{"mesh":1,"translation":[0.0,0.0,0.0],"rotation":[0.0,0.0,0.0,1.0],"scale":[1.0,1.0,1.0],"name":"C"},{"mesh":2,"translation":[0.0,0.0,0.0],"rotation":[0.0,0.0,0.0,1.0],"scale":[1.0,1.0,1.0],"name":"A"},{"translation":[0.0,0.0,0.0],"rotation":[0.0,0.0,0.0,1.0],"scale":[1.0,1.0,1.0],"name":"Default light"}],"meshes":[{"primitives":[{"attributes":{"POSITION":1,"NORMAL":2,"TANGENT":3,"TEXCOORD_0":4},"indices":0,"mode":4,"material":0}],"name":"B"},{"primitives":[{"attributes":{"POSITION":6,"NORMAL":7,"TANGENT":8,"TEXCOORD_0":9},"indices":5,"mode":4,"material":1}],"name":"C"},{"primitives":[{"attributes":{"POSITION":11,"NORMAL":12,"TANGENT":13,"TEXCOORD_0":14},"indices":10,"mode":4,"material":2}],"name":"A"}],"accessors":[{"bufferView":0,"componentType":5123,"count":11610,"type":"SCALAR","name":"accessorIndices"},{"bufferView":1,"componentType":5126,"count":2137,"max":[2.83669186,13.3351526,1.69093335],"min":[-2.83604479,1.3592999,-1.6907655],"type":"VEC3","name":"accessorPositions"},{"bufferView":1,"byteOffset":25644,"componentType":5126,"count":2137,"type":"VEC3","name":"accessorNormals"},{"bufferView":2,"componentType":5126,"count":2137,"type":"VEC4","name":"accessorTangents"},{"bufferView":3,"componentType":5126,"count":2137,"type":"VEC2","name":"accessorUVs"},{"bufferView":0,"byteOffset":23220,"componentType":5123,"count":8016,"type":"SCALAR","name":"accessorIndices"},{"bufferView":1,"byteOffset":51288,"componentType":5126,"count":2237,"max":[2.27223158,17.2998466,1.84239554],"min":[-2.23315954,2.4734478,-1.17351675],"type":"VEC3","name":"accessorPositions"},{"bufferView":1,"byteOffset":78132,"componentType":5126,"count":2237,"type":"VEC3","name":"accessorNormals"},{"bufferView":2,"byteOffset":34192,"componentType":5126,"count":2237,"type":"VEC4","name":"accessorTangents"},{"bufferView":3,"byteOffset":17096,"componentType":5126,"count":2237,"type":"VEC2","name":"accessorUVs"},{"bufferView":0,"byteOffset":39252,"componentType":5123,"count":35244,"type":"SCALAR","name":"accessorIndices"},{"bufferView":1,"byteOffset":104976,"componentType":5126,"count":6594,"max":[2.97065234,14.4186468,1.81413352],"min":[-2.97277784,0.0137416348,-1.81425583],"type":"VEC3","name":"accessorPositions"},{"bufferView":1,"byteOffset":184104,"componentType":5126,"count":6594,"type":"VEC3","name":"accessorNormals"},{"bufferView":2,"byteOffset":69984,"componentType":5126,"count":6594,"type":"VEC4","name":"accessorTangents"},{"bufferView":3,"byteOffset":34992,"componentType":5126,"count":6594,"type":"VEC2","name":"accessorUVs"}],"bufferViews":[{"buffer":0,"byteLength":109740,"name":"bufferViewScalar"},{"buffer":0,"byteOffset":109740,"byteLength":263232,"byteStride":12,"name":"bufferViewFloatVec3"},{"buffer":0,"byteOffset":372972,"byteLength":175488,"byteStride":16,"name":"bufferViewFloatVec4"},{"buffer":0,"byteOffset":548460,"byteLength":87744,"byteStride":8,"name":"bufferViewFloatVec2"}],"buffers":[{"uri":"JIUpbs.bin","byteLength":636204}],"materials":[{"pbrMetallicRoughness":{"baseColorFactor":[0.5,0.5,0.5,0.645077467],"metallicFactor":0.0,"roughnessFactor":0.33},"emissiveFactor":[0.0,0.0,0.0],"alphaMode":"BLEND","name":"water"},{"pbrMetallicRoughness":{"baseColorFactor":[0.5,0.5,0.5,1.0],"metallicFactor":0.0,"roughnessFactor":0.33},"emissiveFactor":[0.0,0.0,0.0],"alphaMode":"OPAQUE","name":"gai"},{"pbrMetallicRoughness":{"baseColorFactor":[0.5,0.5,0.5,0.3414634],"metallicFactor":0.0,"roughnessFactor":0.33},"emissiveFactor":[0.0,0.0,0.0],"alphaMode":"BLEND","name":"glass"}]}